inDegrees=no
num_controls=7
num_derivatives=13
num_iterations=98
num_multipliers=7
num_parameters=0
num_slacks=7
num_states=26
objective=0.445709
objective_accelerations=0.057226
objective_balance=0.003401
objective_effort=0.022746
objective_height=0.356795
objective_ligament=0.005541
solver_duration=1331.359799
status=Solve_Succeeded
success=true
DataType=double
version=3
OpenSimVersion=4.5
endheader
time	/jointset/ground_pelvis/pelvis_tilt/value	/jointset/ground_pelvis/pelvis_tx/value	/jointset/ground_pelvis/pelvis_ty/value	/jointset/hip_l/hip_flexion_l/value	/jointset/hip_l/hip_adduction_l/value	/jointset/hip_l/hip_rotation_l/value	/jointset/back/lumbar_extension/value	/jointset/patellofemoral_l/patellar_flexion_l/value	/jointset/knee_l/knee_flexion_l/value	/jointset/knee_l/knee_adduction_l/value	/jointset/knee_l/knee_rotation_l/value	/jointset/ankle_l/ankle_angle_l/value	/jointset/subtalar_l/subtalar_angle_l/value	/jointset/ground_pelvis/pelvis_tilt/speed	/jointset/ground_pelvis/pelvis_tx/speed	/jointset/ground_pelvis/pelvis_ty/speed	/jointset/hip_l/hip_flexion_l/speed	/jointset/hip_l/hip_adduction_l/speed	/jointset/hip_l/hip_rotation_l/speed	/jointset/back/lumbar_extension/speed	/jointset/patellofemoral_l/patellar_flexion_l/speed	/jointset/knee_l/knee_flexion_l/speed	/jointset/knee_l/knee_adduction_l/speed	/jointset/knee_l/knee_rotation_l/speed	/jointset/ankle_l/ankle_angle_l/speed	/jointset/subtalar_l/subtalar_angle_l/speed	/forceset/tau_hip_flexion_l	/forceset/tau_hip_adduction_l	/forceset/tau_hip_rotation_l	/forceset/tau_knee_flexion_l	/forceset/tau_ankle_angle_l	/forceset/tau_subtalar_angle_l	/forceset/tau_lumbar_extension	lambda_cid13_p0	lambda_cid13_p1	lambda_cid13_p2	lambda_cid13_p3	lambda_cid13_p4	lambda_cid13_p5	lambda_cid14_p0	/jointset/ground_pelvis/pelvis_tilt/accel	/jointset/ground_pelvis/pelvis_tx/accel	/jointset/ground_pelvis/pelvis_ty/accel	/jointset/hip_l/hip_flexion_l/accel	/jointset/hip_l/hip_adduction_l/accel	/jointset/hip_l/hip_rotation_l/accel	/jointset/back/lumbar_extension/accel	/jointset/patellofemoral_l/patellar_flexion_l/accel	/jointset/knee_l/knee_flexion_l/accel	/jointset/knee_l/knee_adduction_l/accel	/jointset/knee_l/knee_rotation_l/accel	/jointset/ankle_l/ankle_angle_l/accel	/jointset/subtalar_l/subtalar_angle_l/accel	gamma_cid13_p0	gamma_cid13_p1	gamma_cid13_p2	gamma_cid13_p3	gamma_cid13_p4	gamma_cid13_p5	gamma_cid14_p0
0.5	-0.3364894676744337	-0.03529683854594923	0.7607179956090651	1.092598239580568	-0.4367456265875865	-0.2191813082920859	-0.2535509581542486	0.8096032228656344	0.8096032228656348	-0.1284913516335831	-0.1560222220353003	0.113967144840453	-0.02917590126065124	-0.7602415529824436	-0.2119121523400745	-0.5303995190296572	2.463059174500982	-0.2077494805079428	0.7403744225565065	-0.1218528536226239	1.997731009214258	1.997731009214251	0.1284093546409359	-0.09765788470053395	0.4658678241090353	0.001073764879701289	-0.1688667817084671	0.02341294886203811	-0.01066321372092005	-0.2161601813916487	0.05981919860258171	0.04275137336915043	0.1670619409697599	-13.48686761628218	-19.2592005860857	6.222622411728791	-5.100439679866194	-522.009892311556	-61.79324441495215	-24.96672687832599	0.8027622569428784	0.5791720600810101	-0.4668248205022056	-1.336432532878677	0.7312122086102745	-0.2099975554866648	1.07571592268423	-1.275193655902203	-1.275193655902196	0.09948500493150739	0.1717692949183788	-0.541328201441776	0.5172415877320278	-5.495301343137723e-07	-4.285673235455534e-07	2.832654611134509e-06	1.488668059607388e-07	-6.49359839001344e-07	-4.259984386248739e-09	-4.541803321042973e-07
0.51	-0.344049858728079	-0.03738672881625899	0.7553918574882387	1.117157059829687	-0.4387876970204239	-0.211786813072236	-0.2547168101616344	0.8295135140175177	0.8295135140175066	-0.1272066945346953	-0.156989648833441	0.1185974936897898	-0.02914125416171643	-0.7517252286326104	-0.2060464037153086	-0.5347112440682747	2.448356540844248	-0.2006474938330025	0.7384283258777599	-0.1113492128672232	1.98404779893773	1.984047798937723	0.1285106638517372	-0.09581175094276073	0.4601231598489527	0.005842921848665449	-0.1744103138265339	0.02425329015104439	-0.01077801527374358	-0.2188719282467196	0.05918154397696494	0.04308323806211445	0.1713198566654625	-13.89641547112983	-19.31110989870526	6.207469171176027	-4.994966325686116	-525.7119095673693	-61.40315846391252	-24.04941453165898	0.8927152627592639	0.5932320559297188	-0.3959448489930554	-1.589507847914419	0.7019362736513659	-0.2017585705813788	1.032938400062702	-1.456707730901473	-1.456707730901351	-0.03621408023241057	0.1939637677089973	-0.6028466116417983	0.4545746702056898	-5.353379992542974e-07	-3.400441572642206e-07	2.860332203390602e-06	1.682854275357155e-07	-6.264689683354591e-07	7.177334319978634e-08	-4.471052132704856e-07
0.52	-0.3515217569904753	-0.03941737044187003	0.7500260824163359	1.14155838792907	-0.4407582987111689	-0.2044147473884763	-0.2557785757118467	0.8492786084631601	0.849278608463139	-0.1259213579355747	-0.1579380286237062	0.1231680336818556	-0.02905935110934656	-0.7425429947325473	-0.2000624234003302	-0.5383269092449476	2.431560744553772	-0.1934557320894431	0.7358885153385054	-0.1010355621880331	1.968691667966267	1.968691667966262	0.1285452546870645	-0.09384848312489827	0.4539060526548584	0.01052495556671334	-0.1799538459445985	0.02509363144004932	-0.01089281682654009	-0.2215836751017923	0.05854388935134727	0.04341510275507615	0.1755777723611678	-14.30916255147154	-19.36303201107539	6.19297422268166	-4.922539570946221	-529.4901389825761	-61.07263526957416	-23.13344009298956	0.9359441669888624	0.6028183981235068	-0.3276128481132856	-1.755065059627039	0.7491672223340852	-0.3287403275882119	1.037717907442101	-1.609777794889089	-1.609777794889087	0.08614132983670283	0.1951961069362221	-0.6358167882441389	0.4998169375487682	-5.190880537826236e-07	-2.3015355792184e-07	2.903609297246084e-06	1.942052780754261e-07	-6.025296199309529e-07	1.518762389931322e-07	-4.380612183501743e-07
0.53	-0.3588987160748389	-0.04138764967232668	0.7446276432518747	1.16578169009575	-0.4426565159169072	-0.1970707251039999	-0.2567381918467712	0.8688820305099979	0.8688820305099453	-0.1246360319922043	-0.1588660285603261	0.1276741812477015	-0.02893097651959935	-0.7327451625990171	-0.1939797448589566	-0.5412411909352203	2.412765118685912	-0.1861770999231471	0.73281184531554	-0.09093698818804542	1.951730615866254	1.951730615866254	0.1285146787064834	-0.0917442644805241	0.4472544000747702	0.01513519269631771	-0.1852862908609302	0.02563572847484696	-0.01095738999836361	-0.2244975092281415	0.05813207686231659	0.04361073586712697	0.1796322414631427	-14.65168883760137	-19.36378347459198	6.165407307139005	-4.82553042761158	-533.2199135639916	-60.69129817883364	-22.22043864844767	1.017183084197304	0.6130858208859333	-0.2554939137568767	-1.992077364808379	0.7184410775069495	-0.3131224241634346	0.988528637599822	-1.778501085635877	-1.778501085635007	-0.04837662114170346	0.219706521026356	-0.690178431911869	0.4390972057136162	-5.020920216391923e-07	-1.319991130372967e-07	2.929697131514396e-06	2.190019302587834e-07	-5.814124212829201e-07	2.290899290798082e-07	-4.279993334847102e-07
